<svg width="99" height="81" viewBox="0 0 99 81" fill="none" xmlns="http://www.w3.org/2000/svg">
<circle cx="49.5" cy="40.5" r="38.5" stroke="#10B981" stroke-width="4"/>
<path d="M65.2539 54.0566C66.0547 54.0566 66.4551 54.5059 66.4551 55.4043C66.4551 56.1465 65.8887 56.8887 64.7559 57.6309C62.6465 59.0176 60.8691 59.9258 59.4238 60.3555C56.709 61.1562 53.8574 61.5566 50.8691 61.5566C47.8809 61.5566 45 61.0293 42.2266 59.9746C39.4727 58.9004 37.1191 57.4062 35.166 55.4922C31.084 51.4688 29.043 46.2734 29.043 39.9062C29.043 36.8398 29.6191 34.0273 30.7715 31.4688C31.9238 28.8906 33.5156 26.6836 35.5469 24.8477C39.8438 20.9609 45.2441 19.0176 51.748 19.0176C55.4004 19.0176 58.6133 19.6426 61.3867 20.8926C64.3359 22.2012 65.8105 23.3145 65.8105 24.2324C65.8105 24.6035 65.6836 24.9258 65.4297 25.1992C65.1953 25.4727 64.9219 25.6094 64.6094 25.6094C63.9844 25.6094 63.418 25.3359 62.9102 24.7891C62.4023 24.2227 61.709 23.7148 60.8301 23.2656C59.9707 22.8164 59.0234 22.4258 57.9883 22.0938C55.8789 21.4492 53.9551 21.127 52.2168 21.127C50.498 21.127 49.0723 21.2441 47.9395 21.4785V59.0371C49.3066 59.2715 50.5176 59.3887 51.5723 59.3887C52.627 59.3887 53.7012 59.3203 54.7949 59.1836C55.8887 59.0469 56.9629 58.8223 58.0176 58.5098C60.3809 57.8066 62.1582 56.7715 63.3496 55.4043C63.7793 54.8965 64.1211 54.5449 64.375 54.3496C64.6289 54.1543 64.9219 54.0566 65.2539 54.0566Z" fill="#10B981"/>
</svg>
